<?xml version="1.0" encoding="UTF-8"?>
<svg version="1.1" viewBox="0 0 1024 1024" width="1024" height="1024" xmlns="http://www.w3.org/2000/svg">
<path transform="translate(626,179)" d="m0 0h14l14 3 21 8 32 13 34 12 29 8 20 4 24 3 28 1 19-1h15l1 1v9l-5 8-9 8-15 8-19 5-23 2-23-2-25-6-25-9-24-11-25-12-6-3h-5l2 4 23 13 27 13 26 10 26 8 21 4-1 6-10 8-13 6-11 3-7 1h-22l-18-4-15-6-21-11-19-13-16-12-4-1 2 5 7 7 18 13 14 9 22 12 19 8-2 4-14 7-11 3h-20l-15-4-14-7-14-10-13-11-6-5-4-1 4 7 14 14 17 13-1 3-10 4-12 1-12-2-13-5-12-8-11-10-3-1 5 10 9 10v2l-16 4h-12l-9-3-10-9-4-10-1-4v-46l10-2 12-4 9-6 8-10 16-33 9-10 8-6 8-4z" fill="#76A0B9"/>
<path transform="translate(384,179)" d="m0 0h13l13 3 11 6 9 8 7 11 13 27 7 9 8 7 11 4 13 2 1 1v44l-3 11-6 9-10 6-6 2h-13l-13-4v-3l9-11 3-7-4 2-7 7-10 7-11 5-9 3-13 1-11-2-9-4 2-4 14-11 12-11 6-7 1-3-7 3-11 10-21 14-17 8-11 3h-20l-15-4-10-6-2-3 33-16 20-12 19-14 10-9v-3l-5 1-17 13-15 10-16 9-16 7-13 4-12 2h-23l-17-4-12-5-9-7-2-3 1-5 25-5 23-7 26-10 20-9 23-12 10-7 1-3-8 2-19 10-25 11-26 10-24 7-18 3-17 1-20-2-19-5-14-7-9-7-6-8-1-7 2-5h13l18 1h13l30-2 24-4 25-6 37-12 33-13 24-10 13-4z" fill="#76A0B9"/>
<path transform="translate(580,352)" d="m0 0h22l14 4 12 7 9 8 7 10 4 10 1 5v15l-4 12-7 11-8 9-13 10-15 8-19 7-22 5-39 7-23 6-18 8-10 7-5 6-3 7v10l5 10 10 9 14 8 8 3v2l-16 8-16 9-5-1-12-9-8-7-8-11-5-11-2-8v-19l5-14 7-11 14-14 11-7 19-9 17-5 50-9 23-6 19-7 13-8 7-7 2-5-1-7-6-3h-13l-25 4h-12l-10-3-8-6-3-5v-10l4-6 8-6 10-5 16-5z" fill="#76A0B9"/>
<path transform="translate(507,133)" d="m0 0h8l12 3 9 6 8 9 4 13v13l-4 11-6 8-8 5-7 1v235l-19 4h-4v-239l-6-1-9-6-6-8-3-7-1-6v-9l2-9 5-9 8-8 12-5z" fill="#76A0B9"/>
<path transform="translate(571,478)" d="m0 0h6l7 8 7 12 3 11v14l-3 12-7 13-11 12-12 9-18 8-26 11-15 8-10 8-5 7-1 3v11l4 8 7 7 8 5v2l-25 15-4-1-11-11-6-10-4-10-1-4v-15l4-12 6-10 9-10 11-8 16-8 15-7 18-8 13-7 10-9 5-10v-7l-4-10-7-7-15-9-6-3 4-2z" fill="#76A0B9"/>
<path transform="translate(420,352)" d="m0 0h23l13 3 15 6 10 6 6 7 1 2v9l-4 6-9 6-8 2h-13l-27-4h-13l-4 2-2 7 4 8 9 8 16 8 16 6 19 5 18 3-1 2-16 6-19 10-11 8-12-3-16-7-12-7-12-11-9-10-6-12-2-10v-11l3-12 7-12 9-9 14-8z" fill="#76A0B9"/>
<path transform="translate(551,580)" d="m0 0 4 1 6 7 7 14 2 9v12l-4 13-7 10-8 8-17 11-20 12-11 9-5 6-2 6v12l4 14 1 6-8 7-4-2-9-10-6-12-2-8v-13l4-12 8-11 11-9 25-15 11-8 5-6 3-7v-9l-4-8-7-7-9-5v-2l24-10z" fill="#76A0B9"/>
<path transform="translate(541,667)" d="m0 0 4 1 5 8 3 8 1 6v12l-4 13-7 10-7 8-11 9-6 5-7 8-7 10-4 12-2 20h-2l-7-14-2-7v-16l4-11 8-11 7-7 8-7 3-3h2l2-4 5-8 2-11-2-10-4-8 1-3z" fill="#76A0B9"/>
<path transform="translate(520,486)" d="m0 0h3v61l-16 6-5-2-2-1v-58l16-5z" fill="#76A0B9"/>
<path transform="translate(513,762)" d="m0 0 3 4 3 10 1 7v55l-2 4-5 2-4-1-3-3-2-6v-49l3-12 4-8z" fill="#76A0B9"/>
<path transform="translate(511,598)" d="m0 0 5 1 7 5 1 28-1 4-10 6-4-1-9-7v-29l9-6z" fill="#76A0B9"/>
<path transform="translate(532,742)" d="m0 0 3 3 3 7 1 5v17l-4 12-7 11-3 2-1-21-3-12-3-7 1-4z" fill="#76A0B9"/>
<path transform="translate(515,683)" d="m0 0 3 1 4 8 1 4v8l-4 8-5 6-6 5h-2l-4-12v-13l6-9z" fill="#76A0B9"/>
</svg>
