<svg id="logo_-_M_-black" data-name="logo - M -black" xmlns="http://www.w3.org/2000/svg" width="66.277" height="42.927" viewBox="0 0 66.277 42.927">
  <path id="Path_38" data-name="Path 38" d="M39.313,73.977l2.907-.018,2.948-9.075-2.188-2.2Z" transform="translate(-19.538 -31.153)" fill="#161616"/>
  <path id="Path_39" data-name="Path 39" d="M27.5,28.028,33.486,9.6l6.6,20.307-.645-1.986L33.486,34.1ZM0,42.983H2.808V6.963L5.55,9.735V42.87H8.3V12.515L24.361,28.754l0,0,2.184,2.215,0-.01,6.939,7.015.013-.013.013.013,6.882-7.112,3.9,11.994,2.907.018L34.8,4.7H32.173L25.317,25.812,0,.112Z" transform="translate(0 -0.057)" fill="#161616"/>
  <path id="Path_40" data-name="Path 40" d="M109.425,0l-8.214,8.528h-.068V8.6L86.817,23.475l.981,2.939,13.345-13.79V42.815h2.748V9.782l2.727-2.817V42.928h2.807Z" transform="translate(-43.147 0)" fill="#161616"/>
</svg>
